<?xml version="1.0" encoding="UTF-8" standalone="no"?>
<!-- Generator: Adobe Illustrator 19.0.0, SVG Export Plug-In . SVG Version: 6.00 Build 0)  -->

<svg
   xmlns:dc="http://purl.org/dc/elements/1.1/"
   xmlns:cc="http://creativecommons.org/ns#"
   xmlns:rdf="http://www.w3.org/1999/02/22-rdf-syntax-ns#"
   xmlns:svg="http://www.w3.org/2000/svg"
   xmlns="http://www.w3.org/2000/svg"
   xmlns:sodipodi="http://sodipodi.sourceforge.net/DTD/sodipodi-0.dtd"
   xmlns:inkscape="http://www.inkscape.org/namespaces/inkscape"
   version="1.1"
   id="Capa_1"
   x="0px"
   y="0px"
   viewBox="0 0 511.46 511.46"
   style="enable-background:new 0 0 511.46 511.46;"
   xml:space="preserve"
   sodipodi:docname="777610.svg"
   inkscape:version="0.92.4 (5da689c313, 2019-01-14)"><metadata
   id="metadata3805"><rdf:RDF><cc:Work
       rdf:about=""><dc:format>image/svg+xml</dc:format><dc:type
         rdf:resource="http://purl.org/dc/dcmitype/StillImage" /></cc:Work></rdf:RDF></metadata><defs
   id="defs3803" /><sodipodi:namedview
   pagecolor="#ffffff"
   bordercolor="#666666"
   borderopacity="1"
   objecttolerance="10"
   gridtolerance="10"
   guidetolerance="10"
   inkscape:pageopacity="0"
   inkscape:pageshadow="2"
   inkscape:window-width="1366"
   inkscape:window-height="745"
   id="namedview3801"
   showgrid="false"
   inkscape:zoom="1.1261878"
   inkscape:cx="160.7192"
   inkscape:cy="255.73"
   inkscape:window-x="-8"
   inkscape:window-y="-8"
   inkscape:window-maximized="1"
   inkscape:current-layer="Capa_1" />

<path
   d="m 255.73,511.46 c -105.995,-0.106 -191.894,-86.005 -192,-192 0,-75.616 50.112,-139.552 103.168,-207.232 27.289,-33.28 52.356,-68.321 75.04,-104.896 5.142,-7.617 15.485,-9.624 23.102,-4.482 1.768,1.193 3.289,2.715 4.482,4.482 22.684,36.575 47.751,71.616 75.04,104.896 53.056,67.68 103.168,131.616 103.168,207.232 -0.106,105.995 -86.005,191.894 -192,192 z m 0,-465.728 c -19.808,30.336 -42.016,58.656 -63.648,86.4 -49.568,63.04 -96.352,122.72 -96.352,187.328 0,88.366 71.634,160 160,160 88.366,0 160,-71.634 160,-160 0,-64.608 -46.784,-124.288 -96.352,-187.456 -21.632,-27.616 -43.84,-55.936 -63.648,-86.272 z"
   id="path3762"
   inkscape:connector-curvature="0"
   style="display:inline" />
<path
   d="M207.73,287.46c-26.51,0-48-21.49-48-48s21.49-48,48-48s48,21.49,48,48S234.24,287.46,207.73,287.46z M207.73,223.46  c-8.837,0-16,7.163-16,16s7.163,16,16,16s16-7.163,16-16S216.567,223.46,207.73,223.46z"
   id="path3764" />
<path
   d="M303.73,447.46c-26.51,0-48-21.49-48-48s21.49-48,48-48s48,21.49,48,48S330.24,447.46,303.73,447.46z M303.73,383.46  c-8.837,0-16,7.163-16,16s7.163,16,16,16s16-7.163,16-16S312.567,383.46,303.73,383.46z"
   id="path3766" />
<path
   d="M175.73,415.46c-8.837,0.016-16.013-7.135-16.029-15.971c-0.008-4.26,1.684-8.348,4.701-11.357l160-160  c6.256-6.256,16.4-6.256,22.656,0s6.256,16.4,0,22.656l-160,160C184.052,413.787,179.976,415.468,175.73,415.46z"
   id="path3768" />
<g
   id="g3770">
</g>
<g
   id="g3772">
</g>
<g
   id="g3774">
</g>
<g
   id="g3776">
</g>
<g
   id="g3778">
</g>
<g
   id="g3780">
</g>
<g
   id="g3782">
</g>
<g
   id="g3784">
</g>
<g
   id="g3786">
</g>
<g
   id="g3788">
</g>
<g
   id="g3790">
</g>
<g
   id="g3792">
</g>
<g
   id="g3794">
</g>
<g
   id="g3796">
</g>
<g
   id="g3798">
</g>
</svg>