<svg width="64" height="64" xmlns="http://www.w3.org/2000/svg">

 <g>
  <title>background</title>
  <rect fill="none" id="canvas_background" y="0" x="0"/>
 </g>
 <g>
  <title>Layer 1</title>
  <g stroke="null" id="svg_1">
   <g stroke="null" id="svg_2">
    <path stroke="null" id="svg_3" d="m42.258375,12.700001c0,-6.989151 -4.223149,-12.700001 -9.392142,-12.700001c-5.168624,0 -9.392019,5.71085 -9.392019,12.700001l4.689932,0c0,-3.486275 2.111697,-6.3417 4.689932,-6.3417c2.578235,0 4.690055,2.855425 4.690055,6.3417s-2.11182,6.3417 -4.690055,6.3417l-28.164148,0l0,6.3417l28.176302,0c5.168993,0.033203 9.392142,-5.694249 9.392142,-12.6834z"/>
    <path stroke="null" id="svg_4" d="m53.995729,12.700001c-5.168993,0 -9.392142,5.71085 -9.392142,12.700001l4.702087,0c0,-3.486275 2.11182,-6.3417 4.690055,-6.3417s4.689809,2.855425 4.689809,6.3417s-2.09942,6.358301 -4.689809,6.358301l-53.99573,0l0,6.3417l54.007884,0c5.168747,0 9.392142,-5.71085 9.392142,-12.700001c0,-6.989151 -4.235672,-12.700001 -9.404296,-12.700001z"/>
    <path stroke="null" id="svg_5" d="m46.960707,44.458304l-32.878635,0l0,6.3417l32.878635,0c1.411891,0 2.344966,1.261699 2.344966,3.17085s-0.933076,3.171016 -2.344966,3.171016s-2.344966,-1.261865 -2.344966,-3.171016l-4.690055,0c0,5.080166 3.05705,9.529151 7.047176,9.529151s7.047176,-4.133726 7.047176,-9.529151s-3.069205,-9.51255 -7.05933,-9.51255z"/>
   </g>
  </g>
  <g id="svg_6"/>
  <g id="svg_7"/>
  <g id="svg_8"/>
  <g id="svg_9"/>
  <g id="svg_10"/>
  <g id="svg_11"/>
  <g id="svg_12"/>
  <g id="svg_13"/>
  <g id="svg_14"/>
  <g id="svg_15"/>
  <g id="svg_16"/>
  <g id="svg_17"/>
  <g id="svg_18"/>
  <g id="svg_19"/>
  <g id="svg_20"/>
 </g>
</svg>